<svg xmlns="http://www.w3.org/2000/svg" width="1202" height="106" viewBox="0 0 1202 106">
  <defs>
    <filter id="a" width="125%" height="122.2%" x="-12.5%" y="-7.9%" filterUnits="objectBoundingBox">
      <feOffset dy="2" in="SourceAlpha" result="shadowOffsetOuter1"/>
      <feGaussianBlur in="shadowOffsetOuter1" result="shadowBlurOuter1" stdDeviation="2"/>
      <feColorMatrix in="shadowBlurOuter1" result="shadowMatrixOuter1"
                     values="0 0 0 0 0 0 0 0 0 0 0 0 0 0 0 0 0 0 0.1 0"/>
      <feMerge>
        <feMergeNode in="shadowMatrixOuter1"/>
        <feMergeNode in="SourceGraphic"/>
      </feMerge>
    </filter>
    <filter id="b" width="125%" height="122.2%" x="-12.5%" y="-7.9%" filterUnits="objectBoundingBox">
      <feOffset dy="2" in="SourceAlpha" result="shadowOffsetOuter1"/>
      <feGaussianBlur in="shadowOffsetOuter1" result="shadowBlurOuter1" stdDeviation="2"/>
      <feColorMatrix in="shadowBlurOuter1" result="shadowMatrixOuter1"
                     values="0 0 0 0 0 0 0 0 0 0 0 0 0 0 0 0 0 0 0.1 0"/>
      <feMerge>
        <feMergeNode in="shadowMatrixOuter1"/>
        <feMergeNode in="SourceGraphic"/>
      </feMerge>
    </filter>
    <filter id="c" width="125%" height="122.2%" x="-12.5%" y="-7.9%" filterUnits="objectBoundingBox">
      <feOffset dy="2" in="SourceAlpha" result="shadowOffsetOuter1"/>
      <feGaussianBlur in="shadowOffsetOuter1" result="shadowBlurOuter1" stdDeviation="2"/>
      <feColorMatrix in="shadowBlurOuter1" result="shadowMatrixOuter1"
                     values="0 0 0 0 0 0 0 0 0 0 0 0 0 0 0 0 0 0 0.1 0"/>
      <feMerge>
        <feMergeNode in="shadowMatrixOuter1"/>
        <feMergeNode in="SourceGraphic"/>
      </feMerge>
    </filter>
    <filter id="d" width="125%" height="122.2%" x="-12.5%" y="-7.9%" filterUnits="objectBoundingBox">
      <feOffset dy="2" in="SourceAlpha" result="shadowOffsetOuter1"/>
      <feGaussianBlur in="shadowOffsetOuter1" result="shadowBlurOuter1" stdDeviation="2"/>
      <feColorMatrix in="shadowBlurOuter1" result="shadowMatrixOuter1"
                     values="0 0 0 0 0 0 0 0 0 0 0 0 0 0 0 0 0 0 0.1 0"/>
      <feMerge>
        <feMergeNode in="shadowMatrixOuter1"/>
        <feMergeNode in="SourceGraphic"/>
      </feMerge>
    </filter>
  </defs>
  <g fill="none" fill-rule="evenodd">
    <path fill="#2DB84B" d="M42 99h1120v-4H42z" opacity=".2"/>
    <path fill="#2DB84B"
          d="M32 106a9 9 0 1 1 0-18 9 9 0 0 1 0 18zm-6-8.71l4.5 4.21 7.5-7.016-2.121-1.984-5.379 5.031-2.379-2.225L26 97.291z"/>
    <path fill="#FFF" d="M26 97.29l4.5 4.21 7.5-7.016-2.121-1.984-5.379 5.031-2.379-2.225z"/>
    <path fill="#2DB84B"
          d="M410.333 106a9 9 0 1 1 0-18 9 9 0 0 1 0 18zm-6-8.71l4.5 4.21 7.5-7.016-2.121-1.984-5.379 5.031-2.378-2.225-2.122 1.985z"/>
    <path fill="#FFF" d="M404.333 97.29l4.5 4.21 7.5-7.016-2.121-1.984-5.379 5.031-2.378-2.225z"/>
    <path fill="#2DB84B"
          d="M787.667 106a9 9 0 1 1 0-18 9 9 0 0 1 0 18zm-6-8.21l4.5 4.21 7.5-7.016L791.545 93l-5.378 5.031-2.379-2.225-2.121 1.985z"/>
    <path fill="#FFF" d="M781.667 97.79l4.5 4.21 7.5-7.016L791.545 93l-5.378 5.031-2.379-2.225z"/>
    <g>
      <path fill="#2DB84B"
            d="M1167 106a9 9 0 1 1 0-18 9 9 0 0 1 0 18zm-6-8.71l4.5 4.21 7.5-7.016-2.121-1.984-5.379 5.031-2.379-2.225-2.121 1.985z"/>
      <path fill="#FFF" d="M1161 97.29l4.5 4.21 7.5-7.016-2.121-1.984-5.379 5.031-2.379-2.225z"/>
    </g>
    <g>
      <g filter="url(#a)" transform="translate(4 17)">
        <g fill="#FFF">
          <circle cx="28" cy="28" r="28"/>
          <path d="M28.425 47.25l7.424 7.425-7.424 7.425L21 54.675z"/>
        </g>
        <path fill="#3A3670"
              d="M47.911 17.67l-.043.076-2.99-1.726.045-.076c.52-.9 1.647-.684 2.279-.32.237.137 1.383.879.71 2.046zm-8.575 14.852l-2.989-1.725 5.383-9.323h.005v-.008l2.487-4.309 2.99 1.726-7.876 13.639zm-3.523-.518l2.746 1.585a6.095 6.095 0 0 1-.83.79l-2.565 1.919.38-3.18c.037-.314.138-.718.269-1.114zm4.61 6.15c0 .191-.049.422-.122.656h-4.6l-.022.002c-.138.022-.282.04-.427.055-.87.204-1.52.98-1.52 1.912v4.6a2.302 2.302 0 0 1-.656.121H21.219a.656.656 0 0 1-.657-.656V23.206h18.653l-4.08 7.066c-.405.702-.798 1.884-.895 2.69l-.405 3.398c-.104.872.33 1.225.523 1.335.191.111.713.312 1.417-.215l2.74-2.05c.65-.485 1.476-1.417 1.882-2.12l.025-.044v4.888zm-5.378 6.418v-3.794c0-.36.294-.656.656-.656h3.794l-4.45 4.45zM19.25 19.118V42.35h-.656a.656.656 0 0 1-.657-.656V15.969c0-.362.294-.656.657-.656H37.14c.362 0 .656.293.656.656v1.18H21.22a1.97 1.97 0 0 0-1.969 1.969zm21.172 0v1.997l-.45.778h-19.41v-2.775c0-.362.294-.656.657-.656h18.547c.362 0 .656.294.656.656zm7.436-4.63c-1.312-.758-3.186-.735-4.072.8l-2.075 3.595a1.965 1.965 0 0 0-1.945-1.734h-.656v-1.18A1.97 1.97 0 0 0 37.14 14H18.594a1.97 1.97 0 0 0-1.969 1.969v25.726a1.97 1.97 0 0 0 1.969 1.968h.656v1.18a1.97 1.97 0 0 0 1.969 1.97h11.857c.885 0 2.018-.465 2.665-1.086.013-.013.026-.021.04-.034l4.833-4.835c.639-.639 1.12-1.801 1.12-2.704v-7.162l7.314-12.666c.937-1.624.04-3.128-1.19-3.838z"/>
      </g>
      <g filter="url(#b)" transform="translate(382 17)">
        <g fill="#FFF">
          <circle cx="28" cy="28" r="28"/>
          <path d="M28.425 47.25l7.424 7.425-7.424 7.425L21 54.675z"/>
        </g>
        <path fill="#3A3670"
              d="M39.362 33.724v4.027l-11.715 7.04-11.714-7.04v-4.027h-1.315v4.771l13.03 7.83 13.029-7.83v-4.77z"/>
        <path d="M47.058 29.69l-12.692 7.466-6.719-4.49 12.692-7.455z"/>
        <path fill="#3A3670"
              d="M26.41 32.63l7.934 5.301 13.951-8.206-.873-.581-7.06-4.708L26.41 32.63zm2.475.073l11.431-6.716 5.504 3.669L34.39 36.38l-5.504-3.677zm18.173-3.013l-.334-.566.334.566.364-.546-.364.546z"/>
        <path d="M8.237 29.69l12.692 7.466 6.718-4.49-12.69-7.455z"/>
        <path fill="#3A3670"
              d="M7 29.726l.904.532.333-.567-.333.567 13.047 7.674 7.934-5.3-13.951-8.196L7 29.726zm7.979-3.74l11.432 6.716-5.504 3.678-11.432-6.724 5.504-3.67z"/>
        <path d="M47.058 20.732l-12.692-7.465-6.719 4.49L40.34 25.21z"/>
        <path fill="#3A3670"
              d="M26.41 17.792l13.951 8.195 7.934-5.29-.904-.531-13.047-7.675-7.933 5.3zm2.475-.072l5.504-3.678 11.43 6.725-5.503 3.669-11.431-6.716z"/>
        <path d="M8.237 20.732l12.692-7.465 6.718 4.49-12.69 7.454z"/>
        <path fill="#3A3670"
              d="M7 20.697l.873.582.364-.547-.364.547 7.06 4.707 13.952-8.195-7.934-5.3L7 20.697zm13.907-6.655l5.504 3.678-11.432 6.716-5.504-3.669 11.432-6.725zM26.99 32.667v12.778h1.315V32.667"/>
        <path fill="#FFF" d="M30.903 20.05v-9.768h-6.511v9.768h-3.464l6.72 7.465 6.718-7.465z"/>
        <path fill="#3A3670"
              d="M23.734 9.625v9.768h-4.282l8.196 9.105 8.194-9.105h-4.281V9.625h-7.827zm-1.33 11.082h2.645V10.94h5.196v9.767h2.645l-5.242 5.825-5.244-5.825z"/>
      </g>
      <g filter="url(#c)" transform="translate(760 17)">
        <g fill="#3A3670">
          <circle cx="28" cy="28" r="28"/>
          <path d="M28.425 47.25l7.424 7.425-7.424 7.425L21 54.675z"/>
        </g>
        <path fill="#FFF"
              d="M44.73 24.61l-1.67-5.966a.466.466 0 0 0-.163-.247l-.033-.024a.472.472 0 0 0-.25-.067h-6.505v6.303h8.622zm-9.182 1.122a.562.562 0 0 1-.562-.56v-7.428c0-.31.252-.562.562-.562h7.065c.35 0 .681.11.959.322.277.209.473.498.567.838l1.87 6.679a.556.556 0 0 1-.539.711h-9.922zM7 28.062H32.298V15.437c0-.31.253-.562.563-.562h10.712c.579 0 1.125.183 1.58.528.454.342.776.82.932 1.38l2.273 8.116a2.654 2.654 0 0 1 .098.703v9.906c0 .31-.252.562-.562.562h-1.32a.563.563 0 0 1-.563-.562 5.333 5.333 0 0 0-1.574-3.797 5.348 5.348 0 0 0-3.798-1.574 5.334 5.334 0 0 0-3.798 1.574 5.333 5.333 0 0 0-1.575 3.797.56.56 0 0 1-.56.561l-1.284.001v.597c0 .309-.252.56-.561.56H23.59a.562.562 0 0 1-.562-.56v-.64h-.752a.562.562 0 0 1-.561-.562 5.355 5.355 0 0 0-1.587-3.77 5.341 5.341 0 0 0-3.786-1.558 5.336 5.336 0 0 0-3.784 1.558 5.333 5.333 0 0 0-1.587 3.772.56.56 0 0 1-.409.537v.02l-.276.002a2.589 2.589 0 0 1-1.845-.766 2.592 2.592 0 0 1-.766-1.845v-4.23H7v-1.123zm1.798 5.353c0 .397.156.77.438 1.051.182.184.403.313.648.383a6.492 6.492 0 0 1 1.885-3.948 6.453 6.453 0 0 1 3.088-1.716H8.798v4.23zm14.23 1.489v-5.72H17.83a6.465 6.465 0 0 1 3.088 1.717 6.488 6.488 0 0 1 1.89 4.003h.221zm24.304.043v-9.345a1.264 1.264 0 0 0-.05-.39l-2.275-8.127a1.484 1.484 0 0 0-.53-.789l-.054-.041a1.483 1.483 0 0 0-.85-.256h-10.15v18.948h.748a6.484 6.484 0 0 1 1.876-4.03 6.45 6.45 0 0 1 4.592-1.903c1.72 0 3.343.667 4.566 1.88a6.493 6.493 0 0 1 1.905 4.053h.222zm-23.181 1.158h8.148v-6.92H24.15v6.92zm-8.98.578c.314.312.73.484 1.171.484.443 0 .859-.172 1.171-.484a1.65 1.65 0 0 0-1.17-2.825c-.443 0-.858.17-1.171.483a1.644 1.644 0 0 0-.484 1.17c0 .444.17.86.482 1.172l-.107.107.108-.107zm1.171 1.607c-.742 0-1.44-.289-1.963-.814a2.763 2.763 0 0 1-.815-1.964c0-.741.29-1.439.815-1.964a2.755 2.755 0 0 1 1.963-.814c.743 0 1.44.29 1.965.814.525.528.814 1.224.814 1.964 0 .743-.29 1.44-.814 1.964a2.76 2.76 0 0 1-1.965.814zm24.298-4.433c-.443 0-.859.172-1.17.484a1.643 1.643 0 0 0-.487 1.17c0 .444.173.86.486 1.172.312.312.728.484 1.171.484a1.654 1.654 0 0 0 1.655-1.655 1.653 1.653 0 0 0-1.655-1.655zm0 4.433a2.76 2.76 0 0 1-1.966-.814 2.76 2.76 0 0 1-.813-1.964c0-.741.289-1.44.813-1.964a2.761 2.761 0 0 1 1.966-.814c.74 0 1.439.29 1.963.814.526.527.814 1.224.814 1.964a2.777 2.777 0 0 1-2.777 2.778zm0-6.585a3.775 3.775 0 0 0-2.69 1.114 3.778 3.778 0 0 0-1.114 2.69c0 1.014.395 1.97 1.114 2.69a3.783 3.783 0 0 0 2.69 1.113 3.78 3.78 0 0 0 2.69-1.114 3.772 3.772 0 0 0 1.112-2.69 3.768 3.768 0 0 0-1.112-2.689 3.779 3.779 0 0 0-2.69-1.114zm0 8.729a4.894 4.894 0 0 1-3.483-1.442 4.898 4.898 0 0 1-1.444-3.484c0-1.314.514-2.55 1.444-3.481a4.893 4.893 0 0 1 3.483-1.445c1.315 0 2.55.513 3.483 1.444l.148.148-.006.002a4.892 4.892 0 0 1 1.301 3.332c0 1.315-.513 2.551-1.445 3.484a4.89 4.89 0 0 1-3.48 1.442zm-24.298-8.73a3.775 3.775 0 0 0-2.688 1.114 3.785 3.785 0 0 0-1.114 2.69c0 1.015.394 1.972 1.114 2.69a3.79 3.79 0 0 0 2.688 1.114 3.778 3.778 0 0 0 2.691-1.114 3.782 3.782 0 0 0 1.114-2.69 3.777 3.777 0 0 0-1.113-2.689 3.78 3.78 0 0 0-2.692-1.114zm0 8.73c-1.3 0-2.528-.503-3.457-1.419a4.904 4.904 0 0 1-1.468-3.507c0-1.316.512-2.553 1.443-3.482a4.899 4.899 0 0 1 3.482-1.444 4.89 4.89 0 0 1 3.484 1.444 4.904 4.904 0 0 1 1.444 3.482 4.898 4.898 0 0 1-1.444 3.484 4.9 4.9 0 0 1-3.484 1.443z"/>
      </g>
      <g filter="url(#d)" transform="translate(1139 17)">
        <g fill="#FFF">
          <circle cx="28" cy="28" r="28"/>
          <path d="M28.425 47.25l7.424 7.425-7.424 7.425L21 54.675z"/>
        </g>
        <path fill="#3A3670"
              d="M22.087 27.616c0 1.476.575 2.864 1.62 3.91a5.495 5.495 0 0 0 3.909 1.618 5.494 5.494 0 0 0 3.909-1.619 5.497 5.497 0 0 0 1.62-3.91 5.492 5.492 0 0 0-1.62-3.908 5.487 5.487 0 0 0-3.908-1.619 5.493 5.493 0 0 0-3.91 1.62 5.488 5.488 0 0 0-1.62 3.908zm5.529 6.953a6.91 6.91 0 0 1-4.917-2.036 6.913 6.913 0 0 1-2.035-4.917 6.896 6.896 0 0 1 2.035-4.917 6.91 6.91 0 0 1 4.917-2.036c1.858 0 3.604.724 4.916 2.036a6.91 6.91 0 0 1 2.038 4.916 6.916 6.916 0 0 1-2.038 4.918 6.909 6.909 0 0 1-4.916 2.036zm0-19.145a12.116 12.116 0 0 0-8.62 3.571 12.11 12.11 0 0 0-3.57 8.62c0 1.258.188 2.49.558 3.665a12.5 12.5 0 0 0 1.664 3.355c1.83 2.596 4.483 5.535 7.046 8.376a244.25 244.25 0 0 1 2.922 3.269 249.617 249.617 0 0 1 2.836-3.175l.076-.086c2.568-2.843 5.224-5.783 7.059-8.386a12.166 12.166 0 0 0 2.222-7.018c-.002-3.256-1.27-6.317-3.573-8.62a12.117 12.117 0 0 0-8.62-3.57zm-.001 32.656a.712.712 0 0 1-.462-.172l-.025-.022-.065-.072c-1.043-1.218-2.25-2.552-3.416-3.843-2.582-2.86-5.244-5.808-7.115-8.448l-.053-.074a13.873 13.873 0 0 1-1.852-3.74A13.54 13.54 0 0 1 14 27.616c0-3.637 1.417-7.055 3.987-9.628A13.533 13.533 0 0 1 27.616 14c3.638 0 7.057 1.418 9.627 3.988a13.526 13.526 0 0 1 3.989 9.628 13.549 13.549 0 0 1-2.48 7.837c-1.875 2.657-4.561 5.633-7.16 8.51-1.258 1.393-2.4 2.658-3.435 3.867a.712.712 0 0 1-.542.25z"/>
      </g>
    </g>
    <path fill="#3A3670"
          d="M754.698 11h-1.723V1.047h1.723V11zm10.021 0h-1.73l-4.436-7.062V11h-1.73V1.047h1.73l4.45 7.089v-7.09h1.716V11zm12.722-8.559h-3.104V11h-1.715V2.441h-3.077V1.047h7.896V2.44zm4.963 4.724h-1.928V11h-1.73V1.047h3.5c1.149 0 2.035.257 2.66.772.624.515.936 1.26.936 2.236 0 .665-.16 1.222-.482 1.671-.32.449-.769.794-1.343 1.036l2.235 4.15V11H784.4l-1.996-3.835zm-1.928-1.388h1.777c.584 0 1.04-.147 1.368-.44.328-.295.492-.697.492-1.207 0-.533-.152-.946-.455-1.237-.303-.292-.755-.442-1.357-.452h-1.825v3.336zm12.578 2.906H789.2L788.392 11h-1.798l3.76-9.953h1.552L795.672 11h-1.804l-.814-2.317zm-3.37-1.395h2.885l-1.443-4.129-1.442 4.13zM804.696 11h-1.73l-4.436-7.062V11h-1.73V1.047h1.73l4.45 7.089v-7.09h1.716V11zm7.246-2.563c0-.438-.154-.775-.462-1.012-.307-.237-.862-.476-1.664-.718-.802-.242-1.44-.51-1.914-.807-.907-.57-1.36-1.312-1.36-2.228 0-.802.326-1.463.98-1.983.654-.52 1.503-.779 2.547-.779.693 0 1.31.128 1.852.383a3.04 3.04 0 0 1 1.279 1.09c.31.472.465.995.465 1.57h-1.723c0-.52-.163-.927-.489-1.221-.326-.294-.792-.441-1.398-.441-.565 0-1.004.12-1.316.362-.312.242-.468.58-.468 1.012 0 .365.169.669.506.913.337.243.893.48 1.668.71.775.23 1.397.493 1.866.787.47.294.814.63 1.032 1.011.219.381.328.826.328 1.337 0 .83-.317 1.489-.953 1.979-.636.49-1.498.735-2.588.735-.72 0-1.382-.134-1.985-.4-.604-.267-1.074-.635-1.409-1.104-.335-.47-.502-1.016-.502-1.64h1.73c0 .564.186 1.002.56 1.312.374.31.91.465 1.606.465.602 0 1.054-.122 1.357-.366a1.18 1.18 0 0 0 .455-.967zM817.014 11h-1.722V1.047h1.722V11zm9.318-8.559h-3.104V11h-1.716V2.441h-3.076V1.047h7.896V2.44zM11.854 7.842c-.123 1.053-.512 1.865-1.166 2.437-.653.572-1.523.858-2.607.858-1.176 0-2.118-.422-2.827-1.265C4.545 9.03 4.19 7.901 4.19 6.488v-.957c0-.925.165-1.738.496-2.44.33-.702.798-1.24 1.404-1.617C6.697 1.098 7.4.91 8.197.91c1.057 0 1.905.295 2.543.885.638.59 1.01 1.407 1.114 2.451h-1.32c-.113-.793-.36-1.367-.741-1.723-.38-.355-.913-.533-1.596-.533-.839 0-1.496.31-1.972.93-.477.62-.715 1.502-.715 2.645v.964c0 1.08.226 1.94.677 2.577.451.638 1.082.957 1.894.957.729 0 1.288-.165 1.678-.495.39-.33.648-.906.776-1.726h1.319zm5.441-.868h-2.337V11h-1.32V1.047h3.295c1.121 0 1.984.255 2.588.766.603.51.905 1.253.905 2.228 0 .62-.167 1.16-.502 1.62-.335.46-.801.804-1.398 1.032l2.338 4.225V11h-1.408l-2.16-4.026zM14.958 5.9h2.016c.652 0 1.17-.168 1.555-.505.385-.338.578-.789.578-1.354 0-.615-.183-1.087-.55-1.415-.367-.328-.897-.494-1.59-.499h-2.01V5.9zm12.933.5h-4.313v3.527h5.01V11h-6.323V1.047h6.255v1.08h-4.942v3.2h4.313v1.072zm7.827 2.002h-4.17L30.612 11h-1.354l3.801-9.953h1.149L38.015 11h-1.347l-.95-2.598zm-3.773-1.08h3.384l-1.696-4.655-1.688 4.655zm14.287-5.195h-3.2V11h-1.305V2.127h-3.192v-1.08h7.697v1.08zm7.102 4.272h-4.313v3.528h5.01V11H47.71V1.047h6.254v1.08h-4.942v3.2h4.313v1.072zM55.666 11V1.047h2.81c.865 0 1.63.191 2.296.574.665.383 1.18.927 1.541 1.634.363.706.546 1.517.55 2.433v.636c0 .939-.18 1.762-.543 2.468a3.823 3.823 0 0 1-1.551 1.627c-.673.378-1.455.572-2.349.581h-2.754zm1.312-8.873v7.8h1.38c1.013 0 1.8-.315 2.363-.944s.844-1.524.844-2.686v-.581c0-1.13-.266-2.009-.796-2.635-.531-.627-1.284-.945-2.26-.954h-1.531zM385.971 9.927h4.717V11h-6.036V1.047h1.32v8.88zm13.87-3.582c0 .975-.164 1.826-.492 2.553-.328.727-.793 1.282-1.394 1.665-.602.382-1.304.574-2.106.574-.784 0-1.479-.193-2.085-.578-.606-.385-1.076-.934-1.411-1.647-.335-.714-.507-1.54-.517-2.478v-.718c0-.957.167-1.803.5-2.536.332-.734.803-1.296 1.411-1.685.608-.39 1.305-.585 2.088-.585.798 0 1.5.193 2.11.578.608.385 1.076.943 1.404 1.675.328.731.492 1.582.492 2.553v.629zm-1.305-.643c0-1.18-.237-2.086-.711-2.717-.474-.631-1.137-.947-1.99-.947-.829 0-1.482.316-1.958.947s-.721 1.507-.735 2.628v.732c0 1.144.24 2.043.721 2.697.481.653 1.143.98 1.986.98.848 0 1.504-.308 1.969-.926.465-.617.704-1.503.718-2.656v-.738zm8.77 2.7h-4.17L402.2 11h-1.354l3.801-9.953h1.148L409.603 11h-1.347l-.95-2.598zm-3.773-1.08h3.384l-1.696-4.655-1.688 4.655zm7.41 3.678V1.047h2.81c.865 0 1.631.191 2.296.574.666.383 1.18.927 1.542 1.634.362.706.546 1.517.55 2.433v.636c0 .939-.181 1.762-.543 2.468a3.823 3.823 0 0 1-1.552 1.627c-.672.378-1.455.572-2.348.581h-2.755zm1.312-8.873v7.8h1.381c1.012 0 1.8-.315 2.362-.944.563-.629.844-1.524.844-2.686v-.581c0-1.13-.265-2.009-.796-2.635-.531-.627-1.284-.945-2.26-.954h-1.53zm13.495 4.272h-4.314v3.528h5.01V11h-6.322V1.047h6.254v1.08h-4.942v3.2h4.314v1.072zM428.08 11V1.047h2.81c.866 0 1.632.191 2.297.574.665.383 1.18.927 1.542 1.634.362.706.545 1.517.55 2.433v.636c0 .939-.181 1.762-.544 2.468a3.823 3.823 0 0 1-1.551 1.627c-.673.378-1.455.572-2.349.581h-2.754zm1.313-8.873v7.8h1.38c1.013 0 1.8-.315 2.363-.944s.844-1.524.844-2.686v-.581c0-1.13-.265-2.009-.796-2.635-.531-.627-1.284-.945-2.26-.954h-1.53zM1132.406 11V1.047h2.81c.866 0 1.631.191 2.297.574.665.383 1.179.927 1.541 1.634.363.706.546 1.517.55 2.433v.636c0 .939-.18 1.762-.543 2.468a3.823 3.823 0 0 1-1.552 1.627c-.672.378-1.455.572-2.348.581h-2.755zm1.313-8.873v7.8h1.38c1.012 0 1.8-.315 2.362-.944.563-.629.845-1.524.845-2.686v-.581c0-1.13-.266-2.009-.797-2.635-.53-.627-1.284-.945-2.259-.954h-1.531zm13.494 4.272h-4.314v3.528h5.011V11h-6.323V1.047h6.255v1.08h-4.943v3.2h4.314v1.072zm3.65 3.528h4.717V11h-6.036V1.047h1.32v8.88zm7.622 1.073h-1.312V1.047h1.312V11zm5.695-1.743l2.843-8.21h1.436L1164.768 11h-1.163l-3.684-9.953h1.429l2.83 8.21zm11.238-2.858h-4.313v3.528h5.01V11h-6.323V1.047h6.255v1.08h-4.943v3.2h4.314v1.072zm5.981.575h-2.337V11h-1.32V1.047h3.295c1.121 0 1.984.255 2.588.766.603.51.905 1.253.905 2.228 0 .62-.167 1.16-.502 1.62-.335.46-.801.804-1.398 1.032l2.338 4.225V11h-1.408l-2.16-4.026zm-2.337-1.074h2.016c.652 0 1.17-.168 1.555-.505.385-.338.578-.789.578-1.354 0-.615-.183-1.087-.55-1.415-.367-.328-.897-.494-1.59-.499h-2.01V5.9zm12.933.5h-4.313v3.527h5.01V11h-6.323V1.047h6.255v1.08h-4.942v3.2h4.313v1.072zm2.331 4.6V1.047h2.81c.866 0 1.631.191 2.297.574.665.383 1.179.927 1.541 1.634.362.706.546 1.517.55 2.433v.636c0 .939-.18 1.762-.543 2.468a3.823 3.823 0 0 1-1.552 1.627c-.672.378-1.455.572-2.348.581h-2.755zm1.313-8.873v7.8h1.38c1.012 0 1.8-.315 2.362-.944.563-.629.845-1.524.845-2.686v-.581c0-1.13-.266-2.009-.797-2.635-.53-.627-1.284-.945-2.26-.954h-1.53z"/>
  </g>
</svg>
