<?xml version="1.0" encoding="UTF-8"?>
<svg width="30px" height="30px" viewBox="0 0 30 30" version="1.1" xmlns="http://www.w3.org/2000/svg" xmlns:xlink="http://www.w3.org/1999/xlink">
    <!-- Generator: Sketch 47.1 (45422) - http://www.bohemiancoding.com/sketch -->
    <title>icon_receiver_off</title>
    <desc>Created with Sketch.</desc>
    <defs></defs>
    <g id="Symbols" stroke="none" stroke-width="1" fill="none" fill-rule="evenodd" opacity="0.5">
        <g id="General/Carrier" transform="translate(-960.000000, -54.000000)">
            <g id="General-Info01-Copy-2">
                <g id="Group-16" transform="translate(38.000000, 54.000000)">
                    <g id="Order-Giver" transform="translate(922.000000, 0.000000)">
                        <g id="icon_receiver_off">
                            <circle id="Oval-4" fill="#E3F1DF" cx="15" cy="15" r="15"></circle>
                            <path d="M15.5,10.2525 C14.26,10.2525 13.25,11.26125 13.25,12.50125 C13.25,13.74125 14.26,14.75125 15.5,14.75125 C16.74,14.75125 17.75,13.74125 17.75,12.50125 C17.75,11.26125 16.74,10.2525 15.5,10.2525 L15.5,10.2525 Z M15.5,15.25125 C13.98375,15.25125 12.75,14.0175 12.75,12.50125 C12.75,10.985 13.98375,9.75125 15.5,9.75125 C17.01625,9.75125 18.25,10.985 18.25,12.50125 C18.25,14.0175 17.01625,15.25125 15.5,15.25125 L15.5,15.25125 Z M15.5,6.5 C12.1925,6.5 9.5,9.29625 9.5,12.73375 C9.5,16.07125 14.9825,22.47375 15.215,22.74375 L15.5,23.075 L15.785,22.74375 C16.0175,22.47375 21.5,16.07125 21.5,12.73375 C21.5,9.29625 18.8075,6.5 15.5,6.5 L15.5,6.5 Z M11.75,24 C11.6125,24 11.5,23.8875 11.5,23.75 C11.5,23.6125 11.6125,23.5 11.75,23.5 L15.2425,23.5 L14.745,22.8875 C13.01875,20.76 9,15.5025 9,12.65625 C9,8.985 11.91625,6 15.5,6 C19.08375,6 22,8.985 22,12.65625 C22,15.5025 17.98125,20.76 16.255,22.8875 L15.7575,23.5 L19.25,23.5 C19.3875,23.5 19.5,23.6125 19.5,23.75 C19.5,23.8875 19.3875,24 19.25,24 L11.75,24 Z" id="Fill-1" fill="#108043"></path>
                        </g>
                    </g>
                </g>
            </g>
        </g>
    </g>
</svg>