<?xml version="1.0" encoding="UTF-8"?>
<svg width="30px" height="30px" viewBox="0 0 30 30" version="1.1" xmlns="http://www.w3.org/2000/svg" xmlns:xlink="http://www.w3.org/1999/xlink">
    <!-- Generator: Sketch 47.1 (45422) - http://www.bohemiancoding.com/sketch -->
    <title>icon_pickup_on</title>
    <desc>Created with Sketch.</desc>
    <defs></defs>
    <g id="Symbols" stroke="none" stroke-width="1" fill="none" fill-rule="evenodd">
        <g id="General/Pickup" transform="translate(-345.000000, -54.000000)">
            <g id="General-Info01-Copy">
                <g id="Group-16" transform="translate(38.000000, 54.000000)">
                    <g id="Order-Giver" transform="translate(307.000000, 0.000000)">
                        <g id="icon_pickup_on">
                            <circle id="Oval-4" fill="#E0F5F4" cx="15" cy="15" r="15"></circle>
                            <path d="M7.83915285,8.4166956 C7.60698029,8.4166956 7.41749416,8.60733384 7.41749416,8.8385999 L7.41749416,12.785749 C7.41749416,13.0190985 7.60593916,13.208695 7.83915285,13.208695 L22.1953299,13.208695 C22.4285436,13.208695 22.6169886,13.0190985 22.6169886,12.785749 L22.6169886,8.83755816 C22.6169886,8.6062921 22.4275025,8.4166956 22.196371,8.4166956 L7.83915285,8.4166956 Z M12.623157,15.910966 C12.623157,16.1443156 12.811602,16.3328703 13.0437746,16.3328703 L16.989667,16.3328703 C17.2218396,16.3328703 17.4113257,16.1422321 17.4113257,15.9099243 L17.4113257,13.6326828 C17.4113257,13.6285159 17.4082023,13.6253907 17.4050789,13.6253907 L12.6294038,13.6253907 C12.6262804,13.6253907 12.623157,13.6285159 12.623157,13.6326828 L12.623157,15.910966 Z M12.1994161,13.6253907 L8.46487353,13.6253907 C8.46175013,13.6253907 8.45862673,13.6285159 8.45862673,13.6326828 L8.45862673,22.1603584 C8.45862673,22.3937079 8.64707173,22.5833044 8.88028543,22.5833044 L21.1541973,22.5833044 C21.387411,22.5833044 21.575856,22.3937079 21.575856,22.1603584 L21.575856,13.6326828 C21.575856,13.6285159 21.5727326,13.6253907 21.5696092,13.6253907 L17.8350667,13.6253907 C17.8319433,13.6253907 17.8288199,13.6285159 17.8288199,13.6326828 L17.8288199,16.4307938 C17.8288199,16.605806 17.6851436,16.7495659 17.5102333,16.7495659 L12.5242494,16.7495659 C12.3493392,16.7495659 12.2056629,16.605806 12.2056629,16.4307938 L12.2056629,13.6326828 C12.2056629,13.6285159 12.2025395,13.6253907 12.1994161,13.6253907 L12.1994161,13.6253907 Z M8.35971914,23 C8.18480887,23 8.04113257,22.85624 8.04113257,22.6812279 L8.04113257,13.6253907 L7.72983393,13.6253907 C7.32795676,13.6253907 7,13.2982846 7,12.8961733 L7,8.3177304 C7,8.14271824 7.1436763,8 7.31858657,8 L22.7158962,8 C22.8908065,8 23.0344828,8.14271824 23.0344828,8.3177304 L23.0344828,12.8961733 C23.0344828,13.2982846 22.706526,13.6253907 22.30569,13.6253907 L21.9933502,13.6253907 L21.9933502,22.6812279 C21.9933502,22.85624 21.8496739,23 21.6747636,23 L8.35971914,23 Z" id="Fill-1" fill="#00848E"></path>
                        </g>
                    </g>
                </g>
            </g>
        </g>
    </g>
</svg>