<svg xmlns="http://www.w3.org/2000/svg" xmlns:xlink="http://www.w3.org/1999/xlink" width="128" height="33"
     viewBox="0 0 128 33">
  <defs>
    <path id="a" d="M12.874 18H.177V.086h12.697V18z"/>
  </defs>
  <g fill="none" fill-rule="evenodd">
    <path fill="#7DC1EA"
          d="M86 9.475l-.076.21c-.292-.097-.584-.192-.876-.29-5.303-1.772-10.58-3.634-15.917-5.293-4.973-1.545-10.063-2.365-15.299-2.035-8.245.52-16.35 1.95-24.346 4.009-5.626 1.448-11.193 3.14-16.79 4.71-.969.271-1.957.471-2.936.704 2.193.687 4.353.347 6.463-.132 5.646-1.281 11.287-1.107 16.932-.122 2.733.477 5.43 1.187 8.17 1.607 3.118.478 6.265.75 9.4 1.111-1.087.04-2.172.026-3.257.042-5.231.079-10.345-1.007-15.508-1.618-4.167-.493-8.348-.498-12.498.296-2.1.402-4.182.96-6.299 1.188C7.923 14.43 3.97 11.893.64 8.03.403 7.755.264 7.39 0 6.923c.246.107.335.126.401.176 2.613 1.996 5.581 2.587 8.706 2.01 2.534-.469 5.045-1.146 7.514-1.91C27.055 3.972 37.583 1.232 48.486.323c4.368-.364 8.742-.58 13.08.247 5.701 1.087 11.129 3.108 16.475 5.36C80.716 7.056 83.348 8.29 86 9.475z"/>
    <path fill="#7DC1EA"
          d="M128 18.698c-3.1-1.1-6.167-2.298-9.304-3.282-12.043-3.78-24.414-5.246-37.026-5.003-6.645.128-13.299.371-19.937.165-6.923-.214-13.834-.857-20.743-1.407-3.549-.283-7.08-.775-10.62-1.168-.111-.013-.228.015-.37.212 3.452.68 6.902 1.374 10.357 2.04 13.15 2.536 26.429 3.049 39.788 2.56 16.136-.59 31.967 1.266 47.39 6.12.116.037.24.044.36.065.036-.1.07-.201.105-.302"/>
    <path fill="#E20036"
          d="M127 20.588c-4.388-2.155-9.088-2.97-13.835-3.588l-.165.228c.177.273.327.572.535.814 1.083 1.257 2.437 1.997 4.02 2.15 3.111.303 6.227.543 9.341.808l.104-.412"/>
    <g transform="translate(51 15)">
      <mask id="b" fill="#fff">
        <use xlink:href="#a"/>
      </mask>
      <path fill="#000"
            d="M9.452 13.186c0-.678-.227-1.2-.682-1.562-.454-.364-1.273-.747-2.455-1.15-1.182-.403-2.118-.8-2.807-1.191C1.628 8.213.688 6.772.688 4.96c0-.942.253-1.782.757-2.52.504-.74 1.227-1.316 2.17-1.731C4.56.294 5.619.086 6.794.086c1.182 0 2.235.226 3.16.677.924.45 1.642 1.088 2.153 1.91.512.822.768 1.756.768 2.802h-3.41c0-.798-.239-1.42-.716-1.862-.478-.443-1.148-.665-2.012-.665-.834 0-1.482.186-1.944.557-.462.371-.693.86-.693 1.467 0 .567.27 1.042.812 1.425s1.34.742 2.393 1.078c1.94.614 3.353 1.377 4.24 2.287.886.91 1.33 2.043 1.33 3.4 0 1.51-.542 2.693-1.626 3.55C10.164 17.572 8.706 18 6.872 18c-1.273 0-2.432-.245-3.478-.736-1.046-.491-1.843-1.164-2.393-2.018-.549-.854-.824-1.844-.824-2.97H3.6c0 1.924 1.09 2.886 3.273 2.886.81 0 1.444-.174 1.898-.52.455-.348.682-.833.682-1.456"
            mask="url(#b)"/>
    </g>
    <path fill="#000"
          d="M72.159 22.7c-.7 0-1.269.225-1.705.675-.436.45-.715 1.094-.837 1.932h4.912v-.268c-.016-.745-.228-1.32-.635-1.728-.407-.408-.986-.611-1.735-.611m.403 10.3c-1.939 0-3.517-.564-4.735-1.691C66.61 30.18 66 28.679 66 26.8v-.324c0-1.259.257-2.385.77-3.378a5.473 5.473 0 0 1 2.181-2.294c.941-.537 2.014-.805 3.22-.805 1.809 0 3.232.54 4.271 1.622 1.039 1.082 1.558 2.615 1.558 4.6v1.367h-8.42c.115.82.459 1.476 1.033 1.97.574.494 1.301.741 2.181.741 1.36 0 2.424-.467 3.19-1.402l1.735 1.843c-.53.71-1.247 1.265-2.15 1.662-.905.398-1.907.597-3.007.597M79 33h3V15h-3zM86 33h3V15h-3zM97.159 22.7c-.7 0-1.269.225-1.705.675-.436.45-.714 1.094-.837 1.932h4.913v-.268c-.017-.745-.229-1.32-.636-1.728-.407-.408-.985-.611-1.735-.611m.403 10.3c-1.939 0-3.517-.564-4.735-1.691C91.61 30.18 91 28.679 91 26.8v-.324c0-1.259.257-2.385.77-3.378a5.473 5.473 0 0 1 2.181-2.294c.941-.537 2.014-.805 3.22-.805 1.809 0 3.233.54 4.271 1.622 1.039 1.082 1.558 2.615 1.558 4.6v1.367h-8.42c.115.82.459 1.476 1.033 1.97.574.494 1.301.741 2.181.741 1.36 0 2.424-.467 3.19-1.402l1.735 1.843c-.53.71-1.246 1.265-2.15 1.662-.905.398-1.907.597-3.007.597M111.954 23.433a8.724 8.724 0 0 0-1.19-.094c-1.25 0-2.07.436-2.458 1.309V33H105V20.236h3.122l.092 1.522c.663-1.172 1.582-1.758 2.756-1.758.367 0 .71.051 1.03.153l-.046 3.28zM4.602 26.718h5.796l-2.904-7.95-2.892 7.95zm6.463 1.833H3.923L2.318 33H0l6.51-17h1.968L15 33h-2.307l-1.628-4.449zM24.887 31.502C24.042 32.5 22.802 33 21.167 33c-1.354 0-2.385-.395-3.093-1.185-.708-.79-1.066-1.96-1.074-3.51V20h2.171v8.246c0 1.935.783 2.902 2.348 2.902 1.658 0 2.762-.621 3.31-1.864V20H27v12.764h-2.066l-.047-1.262zM33.54 17v3.073h2.4v1.678h-2.4v7.88c0 .51.107.891.32 1.146.215.254.579.382 1.094.382.254 0 .602-.048 1.046-.141v1.749a6.49 6.49 0 0 1-1.688.233c-.982 0-1.723-.293-2.222-.88-.5-.586-.749-1.419-.749-2.498V21.75H29v-1.678h2.341V17h2.199zM40.266 26.639c0 1.39.339 2.507 1.017 3.348.678.843 1.586 1.263 2.723 1.263 1.145 0 2.055-.426 2.73-1.28.673-.853 1.01-2.049 1.01-3.586 0-1.375-.343-2.489-1.03-3.343-.686-.853-1.597-1.28-2.734-1.28-1.113 0-2.01.421-2.693 1.263-.682.842-1.023 2.047-1.023 3.615zM38 26.384c0-1.228.254-2.333.761-3.314.508-.98 1.215-1.737 2.12-2.27.906-.533 1.94-.8 3.1-.8 1.796 0 3.248.591 4.356 1.773C49.446 22.955 50 24.527 50 26.488v.151c0 1.22-.246 2.315-.737 3.285a5.42 5.42 0 0 1-2.107 2.265c-.914.54-1.964.811-3.15.811-1.787 0-3.234-.591-4.343-1.773S38 28.481 38 26.535v-.15z"/>
  </g>
</svg>
