<?xml version="1.0" encoding="UTF-8"?>
<svg width="40px" height="40px" viewBox="0 0 40 40" version="1.1" xmlns="http://www.w3.org/2000/svg"
     xmlns:xlink="http://www.w3.org/1999/xlink">
  <!-- Generator: Sketch 46.2 (44496) - http://www.bohemiancoding.com/sketch -->
  <title>iconLAPO</title>
  <desc>Created with Sketch.</desc>
  <defs></defs>
  <g id="Symbols" stroke="none" stroke-width="1" fill="none" fill-rule="evenodd">
    <g id="iconLAPO">
      <g>
        <g id="Group-3" fill="#F68E35">
          <path
            d="M20.0002,0 C8.9722,0 0.0002,8.972 0.0002,20 C0.0002,31.028 8.9722,40 20.0002,40 C31.0282,40 40.0002,31.028 40.0002,20 C40.0002,8.972 31.0282,0 20.0002,0"
            id="Fill-1"></path>
        </g>
        <path
          d="M21.6482,10.392 C20.1252,13.702 16.7892,16.003 12.9082,16.003 C12.0432,16.003 11.2112,15.879 10.4132,15.665 C10.3942,15.915 10.3752,16.164 10.3752,16.418 L10.3752,19.984 C10.3752,25.3 14.6842,29.608 20.0002,29.608 C25.3162,29.608 29.6252,25.3 29.6252,19.984 L29.6252,16.418 C29.6252,16.265 29.6092,16.115 29.6032,15.964 C26.0602,15.676 23.0662,13.476 21.6482,10.392"
          id="Fill-4" fill="#FFFFFF"></path>
        <path
          d="M10.9409,16.3692 C10.9409,16.3852 10.9409,16.4022 10.9409,16.4182 L10.9409,19.9842 C10.9409,24.9792 15.0049,29.0432 19.9999,29.0432 C24.9959,29.0432 29.0609,24.9792 29.0609,19.9842 L29.0609,16.4742 C25.9719,16.0702 23.2399,14.2622 21.6479,11.6022 C19.4929,15.2002 15.2559,17.2342 10.9409,16.3692 M19.9999,30.1732 C14.3819,30.1732 9.8109,25.6022 9.8109,19.9842 L9.8109,16.4182 C9.8109,16.1472 9.8299,15.8872 9.8489,15.6362 C9.8619,15.4682 9.9489,15.3082 10.0859,15.2112 C10.2229,15.1132 10.3979,15.0762 10.5599,15.1202 C14.9469,16.2962 19.3359,14.0662 21.1349,10.1562 C21.2269,9.9552 21.4279,9.8272 21.6479,9.8272 C21.8689,9.8272 22.0689,9.9552 22.1609,10.1562 C23.5279,13.1272 26.3969,15.1372 29.6479,15.4002 C29.9319,15.4232 30.1549,15.6542 30.1679,15.9392 L30.1769,16.0932 C30.1839,16.2012 30.1909,16.3092 30.1909,16.4182 L30.1909,19.9842 C30.1909,25.6022 25.6189,30.1732 19.9999,30.1732"
          id="Fill-6" fill="#000000"></path>
        <path
          d="M22.2702,10.3838 C23.5772,13.0288 26.0912,14.8688 28.9822,15.3218 C28.5692,11.8858 26.2492,9.0048 22.9812,7.8718 C22.8532,8.7368 22.6152,9.5788 22.2702,10.3838 M29.6032,16.5288 C29.5872,16.5288 29.5722,16.5278 29.5572,16.5268 C25.8992,16.2308 22.6722,13.9698 21.1352,10.6278 C21.0662,10.4788 21.0662,10.3058 21.1352,10.1558 C21.5812,9.1868 21.8492,8.1548 21.9332,7.0878 C21.9462,6.9208 22.0332,6.7678 22.1702,6.6708 C22.3072,6.5738 22.4802,6.5428 22.6422,6.5858 C26.9342,7.7378 29.9592,11.4948 30.1672,15.9368 C30.1752,16.0998 30.1122,16.2568 29.9952,16.3698 C29.8902,16.4718 29.7492,16.5288 29.6032,16.5288"
          id="Fill-8" fill="#000000"></path>
        <path
          d="M11.0266,15.2327 C15.2576,16.1467 19.3996,13.9287 21.1346,10.1557 C21.5136,9.3317 21.7646,8.4627 21.8826,7.5657 C21.4996,7.4837 21.1176,7.4277 20.7406,7.3967 C20.4916,7.3767 20.2476,7.3587 20.0006,7.3587 C15.4646,7.3587 11.6116,10.7797 11.0266,15.2327 M12.9076,16.5687 C12.0386,16.5687 11.1506,16.4477 10.2666,16.2107 C10.0046,16.1407 9.8286,15.8927 9.8506,15.6217 C10.2586,10.3547 14.7176,6.2287 20.0006,6.2287 C20.2896,6.2287 20.5696,6.2487 20.8316,6.2707 C21.4296,6.3187 22.0386,6.4247 22.6416,6.5857 C22.9056,6.6567 23.0806,6.9047 23.0596,7.1757 C22.9656,8.3757 22.6636,9.5377 22.1616,10.6277 C20.5016,14.2367 16.8696,16.5687 12.9076,16.5687"
          id="Fill-10" fill="#000000"></path>
        <polygon id="Fill-12" fill="#000000" points="15.138 19.451 18.092 19.451 18.092 18.321 15.138 18.321"></polygon>
        <polygon id="Fill-14" fill="#000000" points="22.118 19.451 25.072 19.451 25.072 18.321 22.118 18.321"></polygon>
        <path
          d="M19.9626,25.5512 L19.9606,25.5512 C19.1996,25.5512 18.4526,25.3432 17.8006,24.9492 L18.3846,23.9812 C18.8606,24.2692 19.4056,24.4212 19.9606,24.4212 L19.9626,24.4212 C20.8436,24.4212 21.6796,24.0382 22.2586,23.3702 L23.1126,24.1102 C22.3196,25.0262 21.1706,25.5512 19.9626,25.5512"
          id="Fill-15" fill="#000000"></path>
        <path
          d="M20.0002,40 C14.2222,40 8.7162,37.461 4.8932,33.035 C4.7842,32.908 4.7362,32.74 4.7632,32.574 C5.3702,28.869 8.0772,25.71 11.6582,24.528 L12.0132,25.601 C8.9102,26.625 6.5452,29.315 5.9252,32.498 C9.5252,36.551 14.6392,38.87 20.0002,38.87 C25.3722,38.87 30.4812,36.582 34.0612,32.584 C33.4782,29.359 31.1182,26.634 27.9872,25.601 L28.3402,24.528 C31.9562,25.721 34.6572,28.918 35.2212,32.673 C35.2462,32.837 35.1972,33.003 35.0892,33.128 C31.2872,37.495 25.7872,40 20.0002,40"
          id="Fill-16" fill="#000000"></path>
      </g>
    </g>
  </g>
</svg>
