<svg xmlns="http://www.w3.org/2000/svg" width="64" height="36" viewBox="0 0 64 36">
  <defs>
    <linearGradient id="a" x1="61.716%" x2="31.979%" y1="12.815%" y2="111.097%">
      <stop offset="19.3%" stop-color="#E8461B"/>
      <stop offset="26%" stop-color="#E9531B"/>
      <stop offset="48.9%" stop-color="#EF7814"/>
      <stop offset="67.4%" stop-color="#F28E13"/>
      <stop offset="79.1%" stop-color="#F49712"/>
    </linearGradient>
    <linearGradient id="b" x1="50.003%" x2="50.003%" y1="-22.958%" y2="116.689%">
      <stop offset="30%" stop-color="#E8461B"/>
      <stop offset="69.5%" stop-color="#F49712"/>
    </linearGradient>
    <linearGradient id="c" x1="49.681%" x2="50.414%" y1="99.326%" y2="-18.199%">
      <stop offset="16.7%" stop-color="#F49712"/>
      <stop offset="29.1%" stop-color="#F28A12"/>
      <stop offset="60.2%" stop-color="#ED6917"/>
      <stop offset="71.1%" stop-color="#E8461B"/>
    </linearGradient>
    <linearGradient id="d" x1="113.627%" x2="6.333%" y1="111.01%" y2="7.915%">
      <stop offset="30%" stop-color="#F49712"/>
      <stop offset="50%" stop-color="#EB6015"/>
      <stop offset="73%" stop-color="#E8461B"/>
    </linearGradient>
    <linearGradient id="e" x1="29.557%" x2="77.501%" y1="20.844%" y2="89.093%">
      <stop offset="27.3%" stop-color="#E8461B"/>
      <stop offset="39.5%" stop-color="#E9531B"/>
      <stop offset="61.5%" stop-color="#EE7217"/>
      <stop offset="83.3%" stop-color="#F49712"/>
    </linearGradient>
    <linearGradient id="f" x1="77.342%" x2="18.967%" y1="98.923%" y2="1.18%">
      <stop offset="0%" stop-color="#F49811"/>
      <stop offset="62%" stop-color="#E6381E"/>
    </linearGradient>
  </defs>
  <g fill="none" fill-rule="nonzero">
    <path fill="url(#a)"
          d="M62.332 1.282a3.618 3.618 0 0 0-5.005.886l-4.63 6.929-4.63 6.928-5.173 7.742s1.186 1.986 1.215 1.996c.2.266.443.497.719.686a3.56 3.56 0 0 0 4.713-1.015l2.233-3.13L63.228 6.237a3.539 3.539 0 0 0-.896-4.955z"/>
    <path fill="url(#b)"
          d="M48.067 16.025l-1.41-2.392-1.197-2.03c-1.378-2.337-2.715-3-4.534-2.949a4.758 4.758 0 0 0-3.745 1.97l-1.11 1.573 5.278 8.95 1.545 2.618s1.186 1.986 1.215 1.996c.2.266.443.497.719.685a3.56 3.56 0 0 0 4.713-1.014l2.233-3.13-3.707-6.277z"/>
    <path fill="url(#c)"
          d="M45.46 11.6c-1.378-2.337-2.715-2.997-4.534-2.95a4.758 4.758 0 0 0-3.745 1.971L23.532 29.95l.057.538.014.142.04.378c.616 5.824 6.35 6.154 8.615 3.008l9.09-12.865 5.307-7.515L45.46 11.6z"/>
    <path fill="url(#d)"
          d="M32.726 16.93l-.931-9.157-.024-.235c-.366-3.85-3.076-5.517-5.367-5.51a4.872 4.872 0 0 0-3.98 2.036L21.007 6.07l1.56 14.747 1.08 10.185c.616 5.824 6.35 6.154 8.615 3.008l1.926-2.729-1.462-14.35z"/>
    <path fill="url(#e)"
          d="M31.77 7.534c-.365-3.85-3.075-5.516-5.366-5.509a4.872 4.872 0 0 0-3.98 2.036L21.007 6.07l-1.933 2.733-3.351 4.745-7.597 10.734.524 1.114a5.84 5.84 0 0 0 4.52 3.295 5.876 5.876 0 0 0 5.24-1.996l2.078-2.939.034-.047 2.044-2.892 9.228-13.044-.024-.239z"/>
    <path fill="url(#f)"
          d="M15.714 13.546l-2.37-5.024-2.37-5.022C9.666.641 6.266-.627 3.379.668.492 1.962-.789 5.328.52 8.188l7.61 16.094.524 1.114a5.84 5.84 0 0 0 4.52 3.292 5.876 5.876 0 0 0 5.237-1.993l2.078-2.939.034-.047-4.808-10.163z"/>
    <g fill="#FFF">
      <path
        d="M31.584 19.198c-.003.519.21 1.017.591 1.386.382.369.9.577 1.443.58h.054a2.48 2.48 0 0 0 1.635-.52l-.507-.693c-.3.263-.696.402-1.103.39-.553.01-1.039-.35-1.165-.866h3.078c.009-.113.014-.24.014-.302.017-1.068-.874-1.946-1.99-1.963-1.116-.016-2.035.836-2.052 1.904v.084h.002zm.994-.452c.15-.433.575-.723 1.051-.719.47-.001.886.29 1.028.719h-2.079zm-2.167.158c.505.123.859.557.86 1.055 0 .733-.587 1.207-1.521 1.207a2.459 2.459 0 0 1-1.547-.518l.501-.686c.294.257.68.393 1.078.38.497 0 .573-.262.573-.346 0-.164-.145-.274-.349-.335-.168-.051-.705-.201-.916-.28-.47-.12-.795-.529-.79-.994a1.171 1.171 0 0 1 .413-.901c.266-.23.624-.338.98-.298a2.437 2.437 0 0 1 1.528.502l-.476.653c-.308-.2-.67-.313-1.043-.324-.404 0-.471.184-.477.285-.008.173.148.259.331.321.183.063.7.22.856.279h-.001zm-11.183.295c-.034-1.057.827-1.944 1.932-1.99 1.105-.047 2.043.765 2.106 1.821V19.174c.001.101-.003.202-.014.302h-3.074c.126.515.612.876 1.166.865.406.013.802-.126 1.102-.389l.507.692a2.48 2.48 0 0 1-1.635.52c-1.128.024-2.062-.83-2.088-1.91v-.052l-.002-.003zm3.072-.449a1.071 1.071 0 0 0-1.028-.719 1.094 1.094 0 0 0-1.05.719H22.3zm-5.735-3.318h-1.03v5.615h3.487v-.945h-2.457v-4.67zm8.734 1.796a2.28 2.28 0 0 1 .382-.033c.42-.008.83.119 1.165.36v-.287h.962v3.785h-.962v-.264a1.911 1.911 0 0 1-1.165.37c-1.01.005-1.878-.683-2.062-1.633l1.682-2.3-.002.002zm1.549 1.938c0-.61-.516-1.104-1.154-1.106-.637-.001-1.155.491-1.158 1.1-.004.61.51 1.108 1.147 1.112.639-.004 1.156-.495 1.165-1.106zm11.36-3.736h-2.094v5.615h1.03v-1.57h1.064c1.165.041 2.144-.828 2.189-1.942.045-1.114-.861-2.052-2.026-2.098h-.163v-.005zm-.012 3.087h-1.051v-2.139h1.05c.402-.018.782.17.998.493.217.323.237.732.053 1.073-.184.34-.544.562-.945.58h-.105v-.007zM49.92 17.22c.548.088 1.01.438 1.225.929.117.33.165.68.141 1.03v1.87h-.961v-1.983a.829.829 0 0 0-.38-.823.916.916 0 0 0-.939-.028.834.834 0 0 0-.432.798v2.044h-.962v-3.79h.96v.29a1.76 1.76 0 0 1 1.348-.325v-.012zm-5.54 0a2.28 2.28 0 0 1 .383-.033c.419-.008.829.119 1.164.36v-.287h.963v3.79h-.963v-.268a1.911 1.911 0 0 1-1.164.37c-1.01.006-1.878-.68-2.063-1.629l1.681-2.3v-.003zm1.548 1.947c0-.61-.516-1.104-1.153-1.106-.637-.001-1.156.491-1.159 1.1-.003.61.51 1.108 1.148 1.112.638-.004 1.156-.495 1.164-1.106zm-4.072.489v-3.921h-.963v4.034c-.014.389.153.763.457 1.022.303.258.711.374 1.113.316v-.893a.572.572 0 0 1-.437-.144.52.52 0 0 1-.173-.41l.003-.004z"/>
    </g>
  </g>
</svg>
