<svg xmlns="http://www.w3.org/2000/svg" width="530" height="298" viewBox="0 0 530 298">
  <g fill="none" fill-rule="evenodd">
    <path fill="#E0E0E0"
          d="M510.575 175.443H437.11c-13.472 0-24.433-11.003-24.433-24.529s10.96-24.53 24.433-24.53c3.389 0 6.653.681 9.725 2.027C452.39 118.252 462.858 112 474.466 112c15.443 0 28.52 11.2 31.073 26.312a18.524 18.524 0 0 1 5.036-.704c10.389 0 18.84 8.487 18.84 18.918 0 10.432-8.451 18.917-18.84 18.917"/>
    <path fill="#DFDFDF"
          d="M394.622 0H77.378A4.376 4.376 0 0 0 73 4.376v38.248A4.376 4.376 0 0 0 77.378 47h317.244A4.376 4.376 0 0 0 399 42.624V4.376A4.376 4.376 0 0 0 394.622 0"/>
    <path fill="#DFDFDF" d="M81.758 270.259h308.484V47.745H81.758V270.26zM73 279h326V39H73v240z"/>
    <path fill="#E0E0E0"
          d="M89.92 225.812h24.968c10.43 0 18.917-8.469 18.917-18.877 0-10.409-8.486-18.876-18.917-18.876-2.245 0-4.486.413-6.658 1.23a1.6 1.6 0 0 1-2.15-1.307c-1.982-16.985-16.413-29.794-33.568-29.794-12.922 0-24.527 7.186-30.287 18.753a1.595 1.595 0 0 1-2.147.715 25.277 25.277 0 0 0-11.405-2.69c-14.048 0-25.478 11.406-25.478 25.423 0 14.019 11.43 25.423 25.478 25.423H89.92zM114.888 229H28.673C12.863 229 0 216.166 0 200.39c0-15.777 12.862-28.611 28.673-28.611 3.976 0 7.808.793 11.414 2.362C46.605 162.293 58.89 155 72.512 155c18.124 0 33.47 13.063 36.467 30.69a21.818 21.818 0 0 1 5.91-.82c12.192 0 22.111 9.898 22.111 22.065 0 12.167-9.92 22.065-22.112 22.065z"/>
    <path fill="#FFF" d="M101 28h11v-9h-11zM123 28h11v-9h-11zM145 28h11v-9h-11zM236 28h138v-9H236z"/>
    <path fill="#D3D3D3"
          d="M308.44 164.329c.003 15.662-6.07 30.384-17.103 41.457-11.033 11.071-25.704 17.169-41.308 17.169s-30.274-6.098-41.306-17.17c-22.773-22.86-22.772-60.052.004-82.908 11.03-11.071 25.695-17.167 41.294-17.167 15.603 0 30.272 6.099 41.305 17.171 11.032 11.072 17.11 25.79 17.113 41.448m69.447 103.778l-25.865-25.964.155-.156-4.157-4.172-.154.157-5.226-5.248-.001-.001-1.016-1.02-1.063-1.065-20.876-20.949c20.876-32.28 17.233-75.995-10.945-104.28C293.052 89.667 272.199 81 250.019 81c-22.174 0-43.02 8.666-58.702 24.402C175.634 121.14 167 142.07 167 164.332c0 22.26 8.636 43.187 24.316 58.922 15.681 15.738 36.533 24.408 58.718 24.408h.006c16.185 0 31.653-4.636 44.93-13.248l20.914 20.991.924.928 1.155 1.158v.001l5.226 5.244-.156.156 4.157 4.172.156-.157 25.87 25.962A17.296 17.296 0 0 0 365.552 298a17.3 17.3 0 0 0 12.337-5.13 17.408 17.408 0 0 0 5.11-12.382c0-4.677-1.816-9.076-5.114-12.381"/>
  </g>
</svg>
