<svg xmlns="http://www.w3.org/2000/svg" width="42" height="38" viewBox="0 0 42 38">
  <g fill="none" fill-rule="evenodd">
    <path fill="#CFD7E6"
          d="M32.362 24.724v4.027l-11.715 7.04-11.714-7.04v-4.027H7.618v4.771l13.03 7.83 13.029-7.83v-4.77z"/>
    <path d="M40.058 20.69l-12.692 7.466-6.719-4.49 12.692-7.455z"/>
    <path fill="#CFD7E6"
          d="M19.41 23.63l7.934 5.301 13.951-8.206-.873-.581-7.06-4.708L19.41 23.63zm2.475.073l11.431-6.716 5.504 3.669L27.39 27.38l-5.504-3.677zm18.173-3.013l-.334-.566.334.566.364-.546-.364.546z"/>
    <path d="M1.237 20.69l12.692 7.466 6.718-4.49-12.69-7.455z"/>
    <path fill="#CFD7E6"
          d="M0 20.726l.904.532.333-.567-.333.567 13.047 7.674 7.934-5.3-13.951-8.196L0 20.726zm7.979-3.74l11.432 6.716-5.504 3.678-11.432-6.724 5.504-3.67z"/>
    <path d="M40.058 11.732L27.366 4.267l-6.719 4.49L33.34 16.21z"/>
    <path fill="#CFD7E6"
          d="M19.41 8.792l13.951 8.195 7.934-5.29-.904-.531L27.344 3.49l-7.933 5.3zm2.475-.072l5.504-3.678 11.43 6.725-5.503 3.669L21.885 8.72z"/>
    <path d="M1.237 11.732L13.93 4.267l6.718 4.49-12.69 7.454z"/>
    <path fill="#CFD7E6"
          d="M0 11.697l.873.582.364-.547-.364.547 7.06 4.707 13.952-8.195-7.934-5.3L0 11.697zm13.907-6.655L19.41 8.72 7.979 15.436l-5.504-3.669 11.432-6.725zM19.99 23.667v12.778h1.315V23.667"/>
    <path fill="#FFF" d="M23.903 11.05V1.282h-6.511v9.768h-3.464l6.72 7.465 6.718-7.465z"/>
    <path fill="#CFD7E6"
          d="M16.734.625v9.768h-4.282l8.196 9.105 8.194-9.105h-4.281V.625h-7.827zm-1.33 11.082h2.645V1.94h5.196v9.767h2.645l-5.242 5.825-5.244-5.825z"/>
  </g>
</svg>
