<svg xmlns="http://www.w3.org/2000/svg" xmlns:xlink="http://www.w3.org/1999/xlink" width="40" height="40"
     viewBox="0 0 40 40">
  <defs>
    <path id="a" d="M20 0h20v40H0V0z"/>
  </defs>
  <g fill="none" fill-rule="evenodd">
    <g>
      <mask id="b" fill="#fff">
        <use xlink:href="#a"/>
      </mask>
      <path fill="#7DC1EA" d="M20 0C8.972 0 0 8.972 0 20s8.972 20 20 20 20-8.972 20-20S31.028 0 20 0" mask="url(#b)"/>
    </g>
    <path fill="#FFF"
          d="M21.648 10.392c-1.523 3.31-4.859 5.611-8.74 5.611a9.6 9.6 0 0 1-2.495-.338c-.019.25-.038.499-.038.753v3.566c0 5.316 4.31 9.624 9.625 9.624 5.316 0 9.625-4.308 9.625-9.624v-3.566c0-.153-.016-.303-.022-.454a9.617 9.617 0 0 1-7.955-5.572"/>
    <path fill="#000"
          d="M10.94 16.37v3.614c0 4.995 4.065 9.06 9.06 9.06 4.996 0 9.06-4.065 9.06-9.06v-3.51a10.196 10.196 0 0 1-7.412-4.872c-2.155 3.598-6.392 5.632-10.707 4.767M20 30.173c-5.618 0-10.19-4.57-10.19-10.189v-3.566c0-.27.02-.53.039-.782a.58.58 0 0 1 .237-.425.566.566 0 0 1 .474-.09c4.387 1.175 8.776-1.055 10.575-4.965a.564.564 0 0 1 1.026 0 9.061 9.061 0 0 0 7.487 5.244.567.567 0 0 1 .52.54l.009.153c.007.108.014.216.014.325v3.566c0 5.618-4.572 10.19-10.191 10.19"/>
    <path fill="#000"
          d="M22.27 10.384a9.066 9.066 0 0 0 6.712 4.938 9.004 9.004 0 0 0-6-7.45 10.133 10.133 0 0 1-.712 2.512m7.333 6.145l-.046-.002a10.191 10.191 0 0 1-8.422-5.9.564.564 0 0 1 0-.471 9.003 9.003 0 0 0 .798-3.068.565.565 0 0 1 .71-.502 10.14 10.14 0 0 1 7.524 9.35.563.563 0 0 1-.564.593"/>
    <path fill="#000"
          d="M11.027 15.233c4.23.914 8.373-1.304 10.108-5.077a8.99 8.99 0 0 0 .748-2.59 8.97 8.97 0 0 0-1.142-.17A9.214 9.214 0 0 0 20 7.36c-4.536 0-8.39 3.42-8.974 7.874m1.88 1.336a10.21 10.21 0 0 1-2.64-.358.563.563 0 0 1-.416-.59C10.259 10.356 14.718 6.23 20 6.23c.289 0 .569.02.83.042.599.048 1.208.154 1.81.315a.566.566 0 0 1 .419.59 10.116 10.116 0 0 1-.898 3.452 10.22 10.22 0 0 1-9.254 5.94M15.138 19.451h2.954v-1.13h-2.954zM22.118 19.451h2.954v-1.13h-2.954zM19.963 25.551h-.002a4.176 4.176 0 0 1-2.16-.602l.584-.968c.476.288 1.02.44 1.576.44h.002c.88 0 1.717-.383 2.296-1.05l.854.74a4.166 4.166 0 0 1-3.15 1.44"/>
    <path fill="#000"
          d="M20 40c-5.778 0-11.284-2.539-15.107-6.965a.567.567 0 0 1-.13-.461c.607-3.705 3.314-6.864 6.895-8.046l.355 1.073c-3.103 1.024-5.468 3.714-6.088 6.897C9.525 36.551 14.64 38.87 20 38.87a18.87 18.87 0 0 0 14.061-6.286c-.583-3.225-2.943-5.95-6.074-6.983l.353-1.073c3.616 1.193 6.317 4.39 6.881 8.145a.566.566 0 0 1-.132.455A20.002 20.002 0 0 1 20 40"/>
  </g>
</svg>
