<svg xmlns="http://www.w3.org/2000/svg" width="34" height="33" viewBox="0 0 34 33">
  <g fill="none" fill-rule="evenodd">
    <path fill="#CFD7E6"
          d="M31.911 3.67l-.043.076-2.99-1.726.045-.076c.52-.9 1.647-.684 2.279-.32.237.137 1.383.879.71 2.046zm-8.575 14.852l-2.989-1.725 5.383-9.323h.005v-.008l2.487-4.309 2.99 1.726-7.875 13.639zm-3.523-.518l2.746 1.585a6.095 6.095 0 0 1-.83.79l-2.565 1.919.38-3.18c.037-.314.138-.718.269-1.114zm4.61 6.15c0 .191-.049.422-.122.656h-4.6l-.022.002c-.138.022-.282.04-.427.055-.87.204-1.52.98-1.52 1.912v4.6a2.302 2.302 0 0 1-.656.121H5.219a.656.656 0 0 1-.657-.656V9.206h18.653l-4.08 7.066c-.405.702-.798 1.884-.895 2.69l-.405 3.398c-.104.872.33 1.225.523 1.335.191.111.713.312 1.417-.215l2.74-2.05c.65-.485 1.476-1.417 1.882-2.12l.025-.044v4.888zm-5.378 6.418v-3.793c0-.362.294-.657.656-.657h3.794l-4.45 4.45zM3.25 5.118V28.35h-.656a.656.656 0 0 1-.656-.656V1.969c0-.362.294-.657.656-.657H21.14c.362 0 .656.295.656.657v1.18H5.22A1.97 1.97 0 0 0 3.25 5.118zm21.172 0v1.997l-.45.778H4.563V5.118c0-.362.295-.656.657-.656h18.547c.362 0 .656.294.656.656zm7.436-4.63c-1.312-.758-3.186-.735-4.072.8L25.71 4.883a1.965 1.965 0 0 0-1.945-1.734h-.656V1.97A1.97 1.97 0 0 0 21.14 0H2.594A1.97 1.97 0 0 0 .625 1.969v25.726a1.97 1.97 0 0 0 1.969 1.968h.656v1.18a1.97 1.97 0 0 0 1.969 1.97h11.857c.885 0 2.018-.465 2.665-1.086.013-.013.026-.021.04-.034l4.833-4.835c.639-.639 1.12-1.802 1.12-2.704v-7.162l7.314-12.666c.937-1.624.04-3.128-1.19-3.838z"/>
  </g>
</svg>
