<svg xmlns="http://www.w3.org/2000/svg" width="18" height="18" viewBox="0 0 18 18">
    <path fill="#2987CD" fill-rule="evenodd" d="M6.188 9h5.624a.564.564 0 0 1 0 1.127H6.188a.564.564 0 0 1 0-1.126m6.75-2.25H5.062a.563.563 0 0 1 0-1.125h7.876a.563.563 0 0 1 0 1.125M8.999 1.125c-4.347 0-7.873 3.023-7.873 6.75 0 2.286 1.342 4.285 3.375 5.503v2.933l3.375-1.685h1.123c4.35 0 7.876-3.022 7.876-6.75S13.348 1.125 9 1.125M9 15.75c-.344 0-.681-.02-1.015-.054l-4.608 2.305v-3.983C1.32 12.574 0 10.362 0 7.876 0 3.526 4.03 0 9 0s9 3.527 9 7.876-4.03 7.874-9 7.874"/>
</svg>
