<svg xmlns="http://www.w3.org/2000/svg" width="24" height="24" viewBox="0 0 24 24">
  <defs>
    <filter id="a" width="101.2%" height="104%" x="-.7%" y="-1.4%" filterUnits="objectBoundingBox">
      <feOffset dy="2" in="SourceAlpha" result="shadowOffsetOuter1"/>
      <feGaussianBlur in="shadowOffsetOuter1" result="shadowBlurOuter1" stdDeviation="2"/>
      <feColorMatrix in="shadowBlurOuter1" result="shadowMatrixOuter1"
                     values="0 0 0 0 0 0 0 0 0 0 0 0 0 0 0 0 0 0 0.08 0"/>
      <feMerge>
        <feMergeNode in="shadowMatrixOuter1"/>
        <feMergeNode in="SourceGraphic"/>
      </feMerge>
    </filter>
  </defs>
  <path fill="#A8B7C7" fill-rule="evenodd"
        d="M982.5 95h15a.5.5 0 0 1 0 1h-15a.5.5 0 1 1 0-1zm11.5-7h2v-2h-2v2zm0-2.999h2V83h-2v2.001zM994 91h2v-2h-2v2zm-7-4h2v-1.999h-2V87zm0-3h2v-2h-2v2zm0 6h2v-2h-2v2zm0 3h2v-2h-2v2zm-3-6h2v-1.999h-2V87zm0-3h2v-2h-2v2zm0 6h2v-2h-2v2zm0 3h2v-2h-2v2zm6-11.5c0-.275-.225-.5-.5-.5h-6a.5.5 0 0 0-.5.5V94h-1V81a1 1 0 0 1 1-1h7a1 1 0 0 1 1 1v13h-1V81.5zm7 1c0-.275-.225-.5-.5-.5h-3a.5.5 0 0 0-.5.5V94h-1V82a1 1 0 0 1 1-1h4a1 1 0 0 1 1 1v12h-1V82.5z"
        filter="url(#a)" transform="translate(-978 -78)"/>
</svg>
