<svg xmlns="http://www.w3.org/2000/svg" width="40" height="40" viewBox="0 0 40 40">
  <g fill="none" fill-rule="evenodd">
    <path fill="#E53C3C" d="M20 0C8.972 0 0 8.972 0 20s8.972 20 20 20 20-8.972 20-20S31.028 0 20 0"/>
    <path fill="#FFF"
          d="M19.544 29.043c-4.996 0-9.06-4.064-9.06-9.06l-.062-2.38c.203.245.47 1.085.609 1.28a.468.468 0 0 0 .779.009 4.45 4.45 0 0 1 1.142-1.116l.026-.015c1.648-1.133 4.207-1.67 6.75-1.653 2.545.014 5.049.577 6.593 1.64.417.287.76.608 1.006.96a.47.47 0 0 0 .805-.015s.255-.882.472-1.245v2.536c0 4.995-4.064 9.059-9.06 9.059"/>
    <path fill="#000"
          d="M14.682 19.451h2.954v-1.13h-2.954zM21.662 19.451h2.954v-1.13h-2.954zM19.506 25.551h-.002a4.176 4.176 0 0 1-2.16-.602l.584-.968c.476.288 1.021.44 1.576.44h.002c.881 0 1.717-.383 2.296-1.05l.854.74a4.166 4.166 0 0 1-3.15 1.44"/>
    <path fill="#000"
          d="M19.544 40c-5.778 0-11.284-2.539-15.107-6.965a.567.567 0 0 1-.13-.461c.607-3.705 3.314-6.864 6.895-8.046l.355 1.073c-3.103 1.024-5.468 3.714-6.088 6.897 3.6 4.053 8.714 6.372 14.075 6.372a18.87 18.87 0 0 0 14.06-6.286c-.582-3.225-2.942-5.95-6.073-6.983l.353-1.073c3.616 1.193 6.317 4.39 6.88 8.145a.566.566 0 0 1-.131.455A20.002 20.002 0 0 1 19.543 40"/>
    <path fill="#000"
          d="M19.544 29.043c-4.996 0-9.06-4.064-9.06-9.06l-.062-2.38c.203.245.47 1.085.609 1.28a.468.468 0 0 0 .779.009 4.45 4.45 0 0 1 1.142-1.116l.026-.015c1.648-1.133 4.207-1.67 6.75-1.653 2.545.014 5.049.577 6.593 1.64.417.287.76.608 1.006.96a.47.47 0 0 0 .805-.015s.255-.882.472-1.245v2.536c0 4.995-4.064 9.059-9.06 9.059m-9.122-13.146c.109-.111.227-.218.352-.321 1.866-1.533 5.428-2.254 8.967-2.24 3.539.015 7.02.764 8.728 2.168.098.08.19.164.275.249l-1.09 1.889a5.344 5.344 0 0 0-.8-.668c-1.7-1.17-4.403-1.79-7.121-1.804-2.718-.017-5.477.572-7.29 1.817l-.025.019a5.918 5.918 0 0 0-.948.813c-.141-.248-.284-.523-.428-.797-.205-.393-.41-.786-.62-1.125M19.504 4.35h.109c9.5.017 9.43 4.484 9.323 10.326-1.914-1.478-5.542-2.264-9.191-2.278-3.728-.016-7.516.772-9.56 2.446l-.002-.15c-.107-5.85-.187-10.326 9.32-10.344m1.538-.906v-.571c0-.24-.18-.437-.412-.467a5.496 5.496 0 0 0-1.082-.11c-.367.002-.72.042-1.062.118a.472.472 0 0 0-.366.479v.549c-9.071.439-8.985 5.169-8.875 11.267l.11 5.274c0 5.618 4.57 10.189 10.19 10.189 5.619 0 10.19-4.571 10.19-10.19 0 0 .137-5.084.14-5.273.11-6.088.196-10.814-8.833-11.265"/>
  </g>
</svg>
