<svg xmlns="http://www.w3.org/2000/svg" width="40" height="39" viewBox="0 0 40 39">
  <g fill="none" fill-rule="evenodd">
    <path fill="#E9E9E9"
          d="M19.71 0C8.843 0 0 8.621 0 19.217c0 10.597 8.843 19.218 19.71 19.218 10.868 0 19.71-8.621 19.71-19.218C39.42 8.621 30.578 0 19.71 0"/>
    <path fill="#FFF"
          d="M21.334 9.985c-1.5 3.18-4.788 5.392-8.613 5.392a9.664 9.664 0 0 1-2.458-.325c-.019.24-.038.48-.038.723v3.427c0 5.107 4.247 9.247 9.485 9.247 5.24 0 9.486-4.14 9.486-9.247v-3.427c0-.147-.015-.29-.023-.436-3.49-.276-6.44-2.39-7.839-5.354"/>
    <path fill="#000"
          d="M10.782 15.729v3.474c0 4.799 4.005 8.704 8.929 8.704 4.923 0 8.929-3.905 8.929-8.704V15.83c-3.044-.39-5.737-2.125-7.306-4.682-2.123 3.458-6.3 5.412-10.552 4.58m8.929 13.265c-5.538 0-10.042-4.392-10.042-9.79v-3.427c0-.26.018-.51.037-.752a.552.552 0 0 1 .234-.408.577.577 0 0 1 .467-.088c4.323 1.13 8.648-1.011 10.422-4.77a.557.557 0 0 1 .505-.315c.218 0 .416.123.506.316 1.347 2.855 4.174 4.786 7.378 5.039.28.022.5.244.512.518l.01.148c.006.104.013.207.013.312v3.427c0 5.398-4.505 9.79-10.042 9.79"/>
    <path fill="#000"
          d="M21.947 9.977c1.289 2.541 3.766 4.31 6.616 4.744-.408-3.3-2.695-6.069-5.915-7.158a9.485 9.485 0 0 1-.7 2.414m7.226 5.904h-.045c-3.605-.286-6.786-2.458-8.3-5.669a.533.533 0 0 1 0-.454c.44-.93.704-1.923.786-2.948a.537.537 0 0 1 .234-.4.571.571 0 0 1 .466-.082c4.23 1.106 7.21 4.717 7.415 8.985a.539.539 0 0 1-.17.416.565.565 0 0 1-.386.152"/>
    <path fill="#000"
          d="M10.867 14.637c4.169.878 8.251-1.253 9.962-4.878a8.47 8.47 0 0 0 .736-2.49 8.869 8.869 0 0 0-1.125-.161 8.95 8.95 0 0 0-.73-.037c-4.47 0-8.267 3.288-8.843 7.566m1.854 1.283c-.857 0-1.732-.115-2.603-.343a.543.543 0 0 1-.41-.566c.402-5.061 4.796-9.026 10.002-9.026.285 0 .56.02.82.04.59.047 1.19.149 1.784.304.26.067.432.306.411.566a9.532 9.532 0 0 1-.885 3.318c-1.636 3.467-5.215 5.707-9.119 5.707M14.918 18.69h2.912v-1.086h-2.912zM21.797 18.69h2.912v-1.086h-2.912zM19.673 24.551h-.002c-.75 0-1.486-.2-2.13-.579l.577-.929a3.063 3.063 0 0 0 1.553.422h.002c.868 0 1.693-.368 2.263-1.01l.842.711a4.153 4.153 0 0 1-3.105 1.385"/>
    <path fill="#000"
          d="M19.71 38.435a19.894 19.894 0 0 1-14.888-6.693.535.535 0 0 1-.128-.442c.598-3.56 3.265-6.595 6.796-7.732l.35 1.03c-3.059.986-5.39 3.57-6 6.628a18.77 18.77 0 0 0 13.87 6.123c5.295 0 10.33-2.198 13.858-6.04-.576-3.1-2.9-5.717-5.987-6.71l.349-1.031c3.563 1.147 6.224 4.219 6.781 7.827a.534.534 0 0 1-.131.437c-3.747 4.196-9.166 6.603-14.87 6.603"/>
  </g>
</svg>
