<svg xmlns="http://www.w3.org/2000/svg" width="15" height="15" viewBox="0 0 15 15">
  <path fill="#3A3670" fill-rule="evenodd"
        d="M5.625 0c-1.55 0-2.876.55-3.976 1.65C.55 2.748 0 4.073 0 5.624c0 1.55.55 2.876 1.65 3.976 1.099 1.1 2.424 1.649 3.975 1.649 1.1 0 2.1-.29 3.003-.868l4.237 4.253c.243.243.538.365.885.365s.642-.122.885-.365.365-.538.365-.885-.122-.642-.365-.885l-4.253-4.237a5.45 5.45 0 0 0 .868-3.003c0-1.55-.55-2.876-1.65-3.976C8.502.55 7.177 0 5.626 0zm0 9.375c-1.03 0-1.913-.367-2.648-1.102-.735-.735-1.102-1.618-1.102-2.648s.367-1.913 1.102-2.648c.735-.735 1.618-1.102 2.648-1.102s1.913.367 2.648 1.102c.735.735 1.102 1.618 1.102 2.648s-.367 1.913-1.102 2.648c-.735.735-1.618 1.102-2.648 1.102z"/>
</svg>
