<svg xmlns="http://www.w3.org/2000/svg" xmlns:xlink="http://www.w3.org/1999/xlink" width="117" height="36"
     viewBox="0 0 117 36">
  <defs>
    <rect id="a" width="117" height="36" rx="18"/>
  </defs>
  <g fill="none" fill-rule="evenodd">
    <g>
      <use fill="#3A3670" xlink:href="#a"/>
      <rect width="116" height="35" x=".5" y=".5" stroke="#3A3670" rx="17.5"/>
    </g>
    <path fill="#FFF"
          d="M102.893 18.074a.322.322 0 0 1 .092.297.326.326 0 0 1-.062.152c-.01.014-.006.033-.019.046l-5.98 5.322a.342.342 0 0 1-.484-.484l5.333-4.748v-.668l-5.333-4.747a.343.343 0 0 1 .483-.484l5.97 5.314zM21.45 21.257l2.844-8.21h1.435L22.04 23h-1.163l-3.685-9.953h1.43l2.83 8.21zM28.238 23h-1.264v-7.396h1.264V23zm-1.367-9.358c0-.205.063-.379.188-.52.125-.141.311-.212.557-.212.246 0 .433.07.56.212a.747.747 0 0 1 .192.52.722.722 0 0 1-.191.512c-.128.137-.315.205-.56.205-.247 0-.433-.068-.558-.205a.73.73 0 0 1-.188-.512zm6.46 9.495c-1.003 0-1.818-.33-2.447-.988-.63-.659-.944-1.54-.944-2.642v-.233c0-.733.14-1.388.42-1.965a3.28 3.28 0 0 1 1.177-1.353 2.956 2.956 0 0 1 1.637-.49c.961 0 1.709.318 2.242.951.533.633.8 1.54.8 2.72v.527h-5.01c.017.73.23 1.318.638 1.767.408.449.927.673 1.555.673.447 0 .825-.09 1.135-.273.31-.182.581-.424.814-.725l.772.602c-.62.952-1.55 1.429-2.789 1.429zm-.157-6.631c-.51 0-.939.186-1.285.557-.347.371-.56.892-.643 1.562h3.705v-.096c-.036-.642-.21-1.14-.52-1.493-.31-.354-.729-.53-1.257-.53zm11.054 4.75l1.421-5.652h1.265L44.761 23h-1.026l-1.797-5.605L40.188 23h-1.026l-2.146-7.396h1.257l1.456 5.537 1.723-5.537h1.019l1.757 5.653zm9.33-8.21l3.255 8.122 3.253-8.121h1.703V23h-1.313v-3.876l.123-4.184L57.312 23h-1.005l-3.261-8.04.13 4.164V23h-1.313v-9.953h1.696zm9.995 6.187c0-.724.142-1.376.427-1.955a3.187 3.187 0 0 1 1.19-1.34c.508-.314 1.087-.471 1.74-.471 1.006 0 1.821.348 2.443 1.046.622.697.933 1.624.933 2.782v.089c0 .72-.138 1.366-.413 1.938a3.14 3.14 0 0 1-1.183 1.336c-.513.32-1.102.479-1.767.479-1.003 0-1.815-.349-2.437-1.046-.622-.697-.933-1.62-.933-2.769v-.089zm1.271.15c0 .821.19 1.48.571 1.976.38.497.89.745 1.528.745.642 0 1.153-.251 1.531-.755.378-.503.567-1.209.567-2.116 0-.81-.192-1.468-.577-1.972-.385-.503-.897-.755-1.535-.755-.624 0-1.128.248-1.51.745-.383.497-.575 1.208-.575 2.133zm10.623-2.645a3.79 3.79 0 0 0-.622-.048c-.83 0-1.392.354-1.688 1.06V23h-1.265v-7.396h1.23l.021.854c.415-.66 1.003-.991 1.764-.991.246 0 .433.032.56.095v1.176zm4.232 6.399c-1.003 0-1.819-.33-2.448-.988-.628-.659-.943-1.54-.943-2.642v-.233c0-.733.14-1.388.42-1.965a3.28 3.28 0 0 1 1.176-1.353 2.956 2.956 0 0 1 1.637-.49c.962 0 1.71.318 2.243.951.533.633.8 1.54.8 2.72v.527h-5.011c.018.73.231 1.318.639 1.767.408.449.926.673 1.555.673.447 0 .825-.09 1.135-.273.31-.182.58-.424.813-.725l.773.602c-.62.952-1.55 1.429-2.79 1.429zm-.158-6.631c-.51 0-.938.186-1.285.557-.346.371-.56.892-.642 1.562h3.705v-.096c-.037-.642-.21-1.14-.52-1.493-.31-.354-.729-.53-1.258-.53z"/>
  </g>
</svg>
